<svg xmlns:xlink="http://www.w3.org/1999/xlink" xmlns="http://www.w3.org/2000/svg" width="50" height="51" viewBox="0 0 50 51">
    <g fill="none" fill-rule="evenodd">
        <g>
            <g>
                <path fill="#FFF" stroke="#674386" d="M11.847 26.406c.17.588.162.842.153 1.093-.009.294-.018.585-.018.778h0v1.011l1.964-1.5c.137-.834.687.055.687.055h0l-.469.273c.192.33.363.609.469.723h0l1.06.161 1.954 3.836.187-.105-3.466 16.236c-.32.164-.457.174-.53.101l-.025-.03-2.048-3.208c-.335-.524-.866-.891-1.455-1.055-.589-.164-1.233-.123-1.79.153h0l-3.41 1.69c-.397-.145-.473-.247-.432-.37h0L8.25 29.653l.16.349 3.436-3.597zM22.216 27.595l1.028 4.955.66-.715c.28-.303.895-.442 1.222-.285h0l1.005-2.902.235.334 2.694.751 3.557 16.511-3.841-1.316c-.557-.276-1.201-.317-1.79-.153-.59.164-1.12.531-1.455 1.055h0l-2.048 3.207-3.98-16.244.274.117.603-2.641.033.01c.96.232 1.254-.268 1.535-1.493l.04-.18c.074-.336.14-.632.2-.892l.028-.119z" transform="translate(-1123 -1506) translate(1129 1506)"/>
                <path fill="#FFF" stroke="#674386" d="M21.335 1.294C22.33.938 23.317.538 24.186.82c.862.28 1.426 1.13 1.994 1.966h0l.319.47c.46.67.938 1.3 1.512 1.718.673.49 1.577.765 2.489 1.03 1.025.298 2.085.562 2.643 1.328.472.648.484 1.534.458 2.444l-.014.456c-.028.952-.045 1.904.216 2.707.248.763.804 1.496 1.378 2.232l.142.183.284.366c.512.674.957 1.368.957 2.144 0 .987-.72 1.842-1.383 2.692-.574.737-1.13 1.47-1.378 2.233-.26.803-.244 1.755-.216 2.706h0l.014.456c.026.91.014 1.796-.458 2.445-.558.766-1.618 1.03-2.643 1.328-.912.265-1.816.54-2.489 1.03-.662.482-1.196 1.25-1.725 2.03-.601.888-1.184 1.826-2.1 2.124-.831.27-1.771-.089-2.722-.428h0l-.539-.191c-.77-.27-1.541-.495-2.277-.495-.736 0-1.507.226-2.28.495h0l-.536.191c-.951.34-1.89.698-2.722.428-.786-.255-1.326-.98-1.843-1.743l-.258-.381c-.529-.78-1.062-1.548-1.725-2.03-.673-.49-1.577-.765-2.488-1.03-1.026-.299-2.086-.562-2.644-1.328-.472-.649-.483-1.535-.457-2.445l.014-.456c.028-.951.044-1.903-.216-2.706-.248-.763-.804-1.496-1.378-2.233-.663-.85-1.384-1.705-1.384-2.692 0-.923.635-1.729 1.254-2.526h0l.348-.447c.494-.642.943-1.286 1.16-1.952.26-.803.244-1.755.216-2.707h0l-.014-.456c-.026-.91-.014-1.796.457-2.444.558-.766 1.618-1.03 2.643-1.328.912-.265 1.816-.54 2.49-1.03.574-.418 1.052-1.048 1.513-1.72h0l.318-.468C11.684 1.951 12.247 1.1 13.11.82c.869-.282 1.856.118 2.85.474.906.324 1.822.64 2.688.64.866 0 1.782-.316 2.687-.64z" transform="translate(-1123 -1506) translate(1129 1506)"/>
                <path fill="#62C0C1" fill-rule="nonzero" d="M18.648 26.633c-4.843 0-8.769-3.926-8.769-8.769s3.926-8.769 8.769-8.769 8.768 3.926 8.768 8.769-3.925 8.769-8.768 8.769" transform="translate(-1123 -1506) translate(1129 1506)"/>
            </g>
        </g>
    </g>
</svg>