<svg xmlns:xlink="http://www.w3.org/1999/xlink" xmlns="http://www.w3.org/2000/svg" width="50" height="50" viewBox="0 0 50 50">
    <g fill="none" fill-rule="evenodd">
        <path fill="#62C0C1" fill-rule="nonzero" d="M5.436 21.378c.009-1.397.428-2.577 1.337-3.529.917-.97 2.078-1.45 3.397-1.467 1.066-.018 2.053.315 2.91.97 1.292.995 1.877 2.35 1.912 3.965H28.75c.087-3.45 2.716-4.918 4.726-4.944 1.065-.017 2.06.297 2.917.952 1.31.996 1.904 2.367 1.948 4.027h2.044c1.31-.009 2.158-.82 2.166-2.123.017-1.755 0-3.511.01-5.267 0-.559-.176-1.057-.57-1.432-.366-.358-.768-.69-1.196-.952-.489-.297-1.109-.411-1.52-.778-.419-.376-.637-.97-.952-1.459-.008-.008-.017-.026-.026-.034-1.642-2.385-3.773-4.132-6.63-4.805-1.502-.358-3.048-.603-4.586-.725-3.127-.244-6.237-.044-9.31.603-.814.174-1.652.393-2.377.786-.733.402-1.372 1.013-2 1.59-1.441 1.336-2.848 2.716-4.28 4.07-.131.123-.298.236-.463.271-.638.14-1.285.219-1.922.367-1.25.28-2.481.62-3.59 1.319-.708.454-1.31 1.04-1.346 1.878-.078 1.738-.06 3.477-.026 5.223.018.69.524 1.276 1.206 1.372.812.096 1.624.079 2.463.122" transform="translate(0 11)"/>
        <path fill="#FFF" stroke="#674186" d="M16.944 8.872c-.794.17-1.618.38-2.33.766-.665.365-1.248.91-1.974 1.578-.898.832-1.783 1.682-2.67 2.532-.587.563-1.174 1.127-1.766 1.686-.205.191-.467.354-.72.407-.314.069-.633.124-.952.18-.345.06-.69.119-1.032.198-1.244.279-2.47.61-3.572 1.305-.58.373-1.132.836-1.162 1.546-.082 1.795-.063 3.587-.027 5.388.006.236.096.457.245.626.143.163.342.278.57.312.535.063 1.07.076 2.012.103.102-1.363.587-2.526 1.504-3.487 1.046-1.106 2.373-1.657 3.88-1.677 1.219-.02 2.348.359 3.329 1.109 1.335 1.029 2.013 2.39 2.154 4.011h13.329c.136-1.493.718-2.624 1.499-3.442 1.093-1.144 2.59-1.67 3.868-1.687 1.219-.02 2.358.34 3.338 1.09 1.353 1.03 2.04 2.41 2.189 4.075h1.648c.53-.003.976-.157 1.285-.459.302-.296.46-.727.463-1.246.01-1.038.009-2.073.007-3.109 0-.785-.002-1.57.002-2.355 0-.433-.126-.827-.435-1.122-.358-.35-.744-.67-1.157-.923-.185-.113-.393-.195-.599-.279-.384-.157-.758-.32-1.05-.581-.33-.296-.563-.7-.796-1.124-.094-.173-.19-.348-.298-.515-1.63-2.368-3.741-4.113-6.58-4.782-1.536-.366-3.114-.615-4.684-.74-3.196-.25-6.375-.045-9.518.616z" transform="translate(0 11)"/>
        <path fill="#62C0C1" fill-rule="nonzero" d="M23.621 16.025v-6.05c-.115-.012-.184-.023-.264-.023-2.242-.035-4.449.173-6.644.599-1.218.23-2.299.691-3.172 1.66-.69.76-1.529 1.382-2.264 2.12-.564.564-1.047 1.199-1.472 1.705 4.471-.011 9.138-.011 13.816-.011M25.086 16.036h12.26c-1.97-3.945-7.866-6.088-12.26-6.065v6.065z" transform="translate(0 11)"/>
        <path fill="#FFF" stroke="#674186" d="M41.579.708c-2.155 0-4.106.874-5.519 2.286-1.412 1.413-2.286 3.364-2.286 5.519 0 2.155.874 4.106 2.286 5.518 1.413 1.413 3.364 2.286 5.519 2.286 2.155 0 4.106-.873 5.519-2.286 1.412-1.412 2.286-3.363 2.286-5.518s-.874-4.106-2.286-5.519C45.686 1.582 43.734.708 41.579.708z" transform="translate(0 11)"/>
        <path stroke="#62C0C1" stroke-linecap="round" stroke-linejoin="round" stroke-width="2" d="M41.579 4.693L41.579 12.333M45.399 8.513L37.759 8.513" transform="translate(0 11)"/>
        <path fill="#62C0C1" fill-rule="nonzero" d="M13.095 25.745c0 2.273-1.843 4.116-4.117 4.116-2.273 0-4.116-1.843-4.116-4.116 0-2.274 1.843-4.117 4.116-4.117 2.274 0 4.117 1.843 4.117 4.117M37.346 25.925c0 2.274-1.843 4.117-4.116 4.117-2.273 0-4.116-1.843-4.116-4.117 0-2.273 1.843-4.116 4.116-4.116 2.273 0 4.116 1.843 4.116 4.116" transform="translate(0 11)"/>
    </g>
</svg>