<svg xmlns:xlink="http://www.w3.org/1999/xlink" xmlns="http://www.w3.org/2000/svg" width="50" height="50" viewBox="0 0 50 50">
    <g fill="none" fill-rule="evenodd">
        <path fill="#FFF" stroke="#674186" d="M1.307 27.109c.035-.847.685-1.406 1.382-1.852 1.282-.808 2.709-1.196 4.156-1.52.398-.093.798-.162 1.199-.231.368-.064.736-.128 1.096-.207.282-.059.571-.24.798-.451.692-.654 1.379-1.313 2.065-1.971 1.019-.978 2.037-1.955 3.069-2.911.844-.777 1.525-1.412 2.3-1.837.83-.45 1.791-.695 2.718-.894a38.72 38.72 0 0 1 11.036-.715c1.82.145 3.65.434 5.43.86 3.305.777 5.764 2.806 7.662 5.563.127.196.239.401.35.603.264.483.528.943.904 1.28.33.296.756.48 1.192.658.242.099.487.196.704.329.483.295.936.67 1.353 1.078.373.356.527.831.527 1.356-.004.9-.003 1.801-.002 2.702.002 1.206.004 2.412-.008 3.62-.005.625-.197 1.142-.56 1.498-.37.362-.905.55-1.541.554h-1.98c-.156-1.936-.941-3.54-2.509-4.732a5.999 5.999 0 0 0-3.813-1.246c-1.46.02-3.17.621-4.42 1.929-.906.947-1.576 2.265-1.72 4.007H17.128c-.147-1.884-.921-3.467-2.468-4.658-1.12-.857-2.411-1.29-3.803-1.267-1.722.023-3.238.652-4.434 1.917-1.065 1.116-1.62 2.47-1.725 4.06l-.54-.015c-.63-.017-1.25-.033-1.87-.107a1.167 1.167 0 0 1-.71-.387 1.219 1.219 0 0 1-.303-.773c-.041-2.086-.063-4.162.032-6.24z"/>
        <path fill="#62C0C1" fill-rule="nonzero" d="M15.651 34.835a4.763 4.763 0 1 1-9.526 0 4.763 4.763 0 0 1 9.526 0M43.714 35.045a4.763 4.763 0 1 1-9.526 0 4.763 4.763 0 0 1 9.526 0M27.832 23.588v-7c-.133-.014-.212-.027-.306-.027-2.593-.04-5.147.2-7.688.693-1.41.266-2.66.8-3.67 1.92-.798.88-1.769 1.6-2.62 2.454-.652.653-1.21 1.387-1.703 1.973 5.174-.013 10.574-.013 15.987-.013M29.528 23.601h14.186c-2.279-4.565-9.102-7.045-14.186-7.017V23.6z"/>
        <path stroke="#674186" stroke-linecap="round" stroke-linejoin="round" d="M7.569 18.976s.475-5.527 6.725-5.527M3.587 18.453s.743-8.648 10.522-8.648"/>
        <path stroke="#674186" stroke-linecap="round" stroke-linejoin="round" stroke-width=".905" d="M.199 16.883S1.117 6.199 13.198 6.199"/>
    </g>
</svg>