<svg xmlns:xlink="http://www.w3.org/1999/xlink" xmlns="http://www.w3.org/2000/svg" width="50" height="51" viewBox="0 0 50 51">
    <g fill="none" fill-rule="evenodd">
        <g>
            <g>
                <path fill="#FFF" d="M19.055 15.974v-5.117c-5.604.081-10.397 3.574-12.509 8.448-.812 1.868-1.137 3.899-1.056 6.011.163 2.924 1.219 5.686 3.006 7.879.975 1.137.731 2.843-.487 3.737-1.138.812-2.762.568-3.656-.488-2.193-2.68-3.574-6.01-3.98-9.585-.325-2.6-.081-5.198.65-7.554C3.297 11.507 10.526 5.74 19.055 5.658V.541c0-.244.325-.406.57-.244l10.56 7.717c.162.162.162.406 0 .487l-10.56 7.717c-.245.163-.57 0-.57-.244" transform="translate(-1075 -2542) translate(1080 2542)"/>
                <path stroke="#674186" d="M19.555 1.089l9.79 6.944-9.79 7.605v-5.28c-3.045-.063-5.879.846-8.227 2.432-2.296 1.55-4.128 3.748-5.24 6.315-.842 1.937-1.182 4.04-1.097 6.239.168 3.031 1.265 5.893 3.125 8.176.388.453.535 1.019.464 1.56-.072.555-.37 1.085-.862 1.445-.459.328-1.016.441-1.549.37-.544-.073-1.066-.338-1.43-.767-2.133-2.608-3.475-5.849-3.87-9.33-.316-2.528-.08-5.055.634-7.353 1.12-3.842 3.476-7.177 6.605-9.545 3.179-2.405 7.155-3.813 11.447-3.74h0V1.09z" transform="translate(-1075 -2542) translate(1080 2542)"/>
                <path fill="#62C0C1" fill-rule="nonzero" d="M19.624 49.929c.244.162.57 0 .57-.244v-5.118c8.528-.081 15.757-5.848 18.032-13.646.65-2.356.975-4.874.65-7.554-.406-3.575-1.868-6.905-3.98-9.586-.894-1.137-2.519-1.38-3.656-.487-1.219.893-1.462 2.599-.488 3.736 1.787 2.194 2.844 4.874 3.006 7.88.081 2.112-.325 4.224-1.056 6.01-2.03 4.875-6.823 8.368-12.509 8.448v-5.117c0-.244-.325-.406-.569-.244l-10.56 7.717c-.162.163-.162.406 0 .488l10.56 7.717z" transform="translate(-1075 -2542) translate(1080 2542)"/>
            </g>
        </g>
    </g>
</svg>