<svg xmlns:xlink="http://www.w3.org/1999/xlink" xmlns="http://www.w3.org/2000/svg" width="50" height="51" viewBox="0 0 50 51">
    <g fill="none" fill-rule="evenodd">
        <rect width="49" height="43.792" x=".5" y="4.667" fill="#FFF" stroke="#674186" rx="4"/>
        <path fill="#62C0C1" fill-rule="nonzero" d="M0 21.716V8.333c0-2.463 1.997-4.46 4.46-4.46h41.01c2.463 0 4.46 1.997 4.46 4.46v13.383"/>
        <path fill="#FFF" d="M13.202 10.454h-1.735c-.736 0-1.339-.603-1.339-1.34V1.562c0-.736.603-1.339 1.34-1.339h1.734c.737 0 1.34.603 1.34 1.34v7.551c0 .737-.603 1.34-1.34 1.34"/>
        <path stroke="#674186" stroke-linecap="round" stroke-linejoin="round" d="M13.202 10.454h-1.735c-.736 0-1.339-.603-1.339-1.34V1.562c0-.736.603-1.339 1.34-1.339h1.734c.737 0 1.34.603 1.34 1.34v7.551c0 .737-.603 1.34-1.34 1.34z"/>
        <path fill="#FFF" d="M38.462 10.454h-1.735c-.736 0-1.34-.603-1.34-1.34V1.562c0-.736.604-1.339 1.34-1.339h1.735c.737 0 1.34.603 1.34 1.34v7.551c0 .737-.603 1.34-1.34 1.34"/>
        <path stroke="#674186" stroke-linecap="round" stroke-linejoin="round" d="M38.462 10.454h-1.735c-.736 0-1.34-.603-1.34-1.34V1.562c0-.736.604-1.339 1.34-1.339h1.735c.737 0 1.34.603 1.34 1.34v7.551c0 .737-.603 1.34-1.34 1.34z"/>
        <path stroke="#62C0C1" stroke-linecap="round" stroke-linejoin="round" d="M5.811 39.32L14.811 39.32M20.811 39.32L28.811 39.32M34.811 39.32L43.811 39.32M5.811 28.088L14.811 28.088M20.811 28.088L28.811 28.088M34.811 28.088L43.811 28.088"/>
    </g>
</svg>