<svg xmlns:xlink="http://www.w3.org/1999/xlink" xmlns="http://www.w3.org/2000/svg" width="50" height="50" viewBox="0 0 50 50">
    <g fill="none" fill-rule="evenodd">
        <g>
            <g>
                <path fill="#FFF" stroke="#674186" d="M22.174.5c.365 0 .693.154.932.4.244.254.394.604.394.99h0v46.22c0 .386-.15.736-.394.99-.239.246-.567.4-.932.4h0H1.826c-.364 0-.693-.154-.932-.401-.244-.253-.394-.603-.394-.99h0V1.89c0-.385.15-.735.394-.988C1.133.654 1.462.5 1.826.5h0z" transform="translate(-695 -2100) translate(708 2100)"/>
                <path fill="#62C0C1" fill-rule="nonzero" d="M19 1c0 1.076-1.079 2-2.409 2H7.408C6.078 3 5 2.076 5 1M17.882 31H6.117C5.5 31 5 30.5 5 29.883V18.117C5 17.5 5.5 17 6.117 17h11.765C18.5 17 19 17.5 19 18.117v11.766C19 30.5 18.5 31 17.882 31" transform="translate(-695 -2100) translate(708 2100)"/>
                <path fill="#FFF" d="M10.737 27.106c-.224 0-.438-.089-.596-.247l-1.895-1.895c-.328-.329-.328-.862 0-1.191.33-.329.863-.329 1.192 0l1.299 1.3 3.825-3.826c.329-.33.863-.33 1.191 0 .33.329.33.862 0 1.19l-4.421 4.422c-.158.158-.372.247-.595.247" transform="translate(-695 -2100) translate(708 2100)"/>
            </g>
        </g>
    </g>
</svg>