<svg xmlns:xlink="http://www.w3.org/1999/xlink" xmlns="http://www.w3.org/2000/svg" width="50" height="50" viewBox="0 0 50 50">
    <g fill="none" fill-rule="evenodd">
        <g>
            <g>
                <path d="M0 0H50V50H0z" transform="translate(-276 -1971) translate(276 1971)"/>
                <g>
                    <path fill="#FFF" d="M27.558 8.51c0 4.582-3.955 8.294-8.834 8.294-4.878 0-8.833-3.712-8.833-8.293 0-4.58 3.955-8.292 8.833-8.292 4.879 0 8.834 3.713 8.834 8.292" transform="translate(-276 -1971) translate(276 1971) translate(0 3)"/>
                    <path stroke="#674186" d="M18.724.72c2.305 0 4.393.874 5.904 2.292 1.5 1.408 2.43 3.35 2.43 5.499 0 2.149-.93 4.092-2.43 5.5-1.51 1.418-3.599 2.293-5.904 2.293-2.305 0-4.393-.875-5.904-2.293-1.498-1.408-2.429-3.351-2.429-5.5 0-2.148.93-4.091 2.43-5.499C14.33 1.594 16.419.72 18.724.72z" transform="translate(-276 -1971) translate(276 1971) translate(0 3)"/>
                    <path fill="#62C0C1" fill-rule="nonzero" d="M27.144 21.225c4.873 2.708 9.363 8.774 10.27 14.924 0 0 .504 3.392-2.408 3.392H2.441c-2.912 0-2.408-3.392-2.408-3.392.907-6.15 5.417-12.167 10.27-14.924 0 0 8.008-4.91 16.84 0" transform="translate(-276 -1971) translate(276 1971) translate(0 3)"/>
                    <path stroke="#674186" stroke-linecap="round" stroke-linejoin="round" d="M8.579 32.298L8.579 37.542M27.782 32.298L27.782 37.542" transform="translate(-276 -1971) translate(276 1971) translate(0 3)"/>
                    <path fill="#FFF" d="M39.376 15.398c5.741 0 10.396 4.655 10.396 10.396 0 5.742-4.655 10.396-10.396 10.396-5.741 0-10.396-4.654-10.396-10.396 0-5.741 4.655-10.396 10.396-10.396" transform="translate(-276 -1971) translate(276 1971) translate(0 3)"/>
                    <path stroke="#674186" d="M39.376 15.898c2.733 0 5.207 1.108 6.997 2.899 1.791 1.79 2.899 4.265 2.899 6.997 0 2.733-1.108 5.207-2.899 6.998-1.79 1.79-4.265 2.898-6.997 2.898-2.733 0-5.207-1.108-6.998-2.898-1.79-1.791-2.898-4.265-2.898-6.998 0-2.732 1.107-5.206 2.898-6.997 1.791-1.791 4.265-2.899 6.998-2.899z" transform="translate(-276 -1971) translate(276 1971) translate(0 3)"/>
                    <text fill="#62C0C1" font-family="FilsonSoftMedium, Filson Soft" font-size="9" font-weight="400" transform="translate(-276 -1971) translate(276 1971) translate(0 3)">
                        <tspan x="32.791" y="29">17+</tspan>
                    </text>
                </g>
            </g>
        </g>
    </g>
</svg>