<svg xmlns:xlink="http://www.w3.org/1999/xlink" xmlns="http://www.w3.org/2000/svg" width="50" height="50" viewBox="0 0 50 50">
    <g fill="none" fill-rule="evenodd">
        <g>
            <g>
                <path fill="#62C0C1" fill-rule="nonzero" d="M27.143 21.225c4.874 2.708 9.364 8.775 10.27 14.924 0 0 .505 3.391-2.407 3.391H2.441C-.47 39.54.033 36.15.033 36.15c.907-6.15 5.417-12.167 10.27-14.924 0 0 8.008-4.91 16.84 0" transform="translate(-556 -1969) translate(556 1974)"/>
                <path fill="#FFF" d="M27.558 8.51c0 4.582-3.955 8.294-8.834 8.294-4.878 0-8.833-3.712-8.833-8.293 0-4.58 3.955-8.292 8.833-8.292 4.879 0 8.834 3.713 8.834 8.292" transform="translate(-556 -1969) translate(556 1974)"/>
                <path stroke="#674186" stroke-linecap="round" stroke-linejoin="round" d="M27.558 8.51c0 4.582-3.955 8.294-8.834 8.294-4.878 0-8.833-3.712-8.833-8.293 0-4.58 3.955-8.292 8.833-8.292 4.879 0 8.834 3.713 8.834 8.292zM8.579 32.298L8.579 37.541M27.782 32.298L27.782 37.541" transform="translate(-556 -1969) translate(556 1974)"/>
                <path fill="#FFF" stroke="#674186" d="M39.376 15.898c2.733 0 5.207 1.108 6.997 2.899 1.791 1.79 2.899 4.264 2.899 6.997 0 2.733-1.108 5.207-2.899 6.998-1.79 1.79-4.264 2.898-6.997 2.898-2.733 0-5.207-1.108-6.998-2.898-1.79-1.791-2.898-4.265-2.898-6.998 0-2.733 1.108-5.207 2.898-6.997 1.791-1.791 4.265-2.899 6.998-2.899z" transform="translate(-556 -1969) translate(556 1974)"/>
                <path fill="#62C0C1" fill-rule="nonzero" d="M35.859 30.475L39.087 30.475 39.087 20.815 35.859 20.815z" transform="translate(-556 -1969) translate(556 1974)"/>
                <path fill="#62C0C1" fill-rule="nonzero" d="M35.859 30.494L44.283 30.494 44.283 27.266 35.859 27.266z" transform="translate(-556 -1969) translate(556 1974)"/>
            </g>
        </g>
    </g>
</svg>