<svg xmlns:xlink="http://www.w3.org/1999/xlink" xmlns="http://www.w3.org/2000/svg" width="50" height="50" viewBox="0 0 50 50">
    <g fill="none" fill-rule="evenodd">
        <g>
            <g>
                <path fill="#FFF" d="M23.647 7.332c0 3.932-3.393 7.117-7.58 7.117-4.186 0-7.58-3.185-7.58-7.117 0-3.929 3.394-7.115 7.58-7.115 4.187 0 7.58 3.186 7.58 7.115" transform="translate(-695 -2110) translate(695 2115)"/>
                <path stroke="#674186" d="M16.067.717c1.959 0 3.734.744 5.018 1.949 1.272 1.194 2.062 2.843 2.062 4.666 0 1.824-.79 3.474-2.062 4.668-1.284 1.206-3.059 1.949-5.018 1.949-1.959 0-3.733-.743-5.017-1.949-1.272-1.194-2.062-2.844-2.062-4.668 0-1.823.79-3.472 2.062-4.666C12.334 1.46 14.108.717 16.067.717z" transform="translate(-695 -2110) translate(695 2115)"/>
                <path fill="#FFF" d="M41.825 13.57c0 3.932-3.393 7.117-7.58 7.117-4.186 0-7.58-3.185-7.58-7.117 0-3.929 3.394-7.114 7.58-7.114 4.187 0 7.58 3.185 7.58 7.114" transform="translate(-695 -2110) translate(695 2115)"/>
                <path stroke="#674186" d="M34.245 6.956c1.959 0 3.734.743 5.018 1.948 1.272 1.194 2.062 2.843 2.062 4.666 0 1.824-.79 3.474-2.062 4.668-1.284 1.206-3.059 1.949-5.018 1.949-1.959 0-3.733-.743-5.017-1.949-1.272-1.194-2.062-2.844-2.062-4.668 0-1.823.79-3.472 2.062-4.666 1.284-1.205 3.058-1.948 5.017-1.948z" transform="translate(-695 -2110) translate(695 2115)"/>
                <path fill="#62C0C1" fill-rule="nonzero" d="M20.273 39.544h27.944c.475 0 .818-.129 1.048-.395.442-.513.416-1.471.372-1.767-.709-4.808-4.277-9.994-8.484-12.332-2.405-1.337-4.743-1.782-6.79-1.782-4.049 0-6.96 1.741-7.002 1.768-4.307 2.446-7.798 7.518-8.51 12.345-.044.32-.065 1.263.377 1.771.229.264.57.392 1.045.392" transform="translate(-695 -2110) translate(695 2115)"/>
                <path stroke="#674186" stroke-linecap="round" stroke-linejoin="round" d="M25.611 33.657L25.611 38.091M42.26 33.657L42.26 38.091" transform="translate(-695 -2110) translate(695 2115)"/>
                <path fill="#62C0C1" fill-rule="nonzero" d="M26.697 23.913c.082-.05.769-.46 1.893-.892-1.518-2.02-3.371-3.708-5.298-4.78-7.58-4.212-14.45 0-14.45 0C4.677 20.609.806 25.772.029 31.049c0 0-.433 2.91 2.066 2.91h16.314c1.517-4.102 4.63-7.967 8.288-10.045" transform="translate(-695 -2110) translate(695 2115)"/>
                <path fill="#59BFC2" d="M19.8 33.958h10.238c2.5 0 2.066-2.91 2.066-2.91-.356-2.408-1.355-4.799-2.73-6.91-1.248.44-1.992.885-2.013.898-3.29 1.869-6.098 5.27-7.56 8.922" transform="translate(-695 -2110) translate(695 2115)"/>
                <path stroke="#674186" stroke-linecap="round" stroke-linejoin="round" d="M7.433 27.419L7.433 31.853" transform="translate(-695 -2110) translate(695 2115)"/>
            </g>
        </g>
    </g>
</svg>