<svg xmlns:xlink="http://www.w3.org/1999/xlink" xmlns="http://www.w3.org/2000/svg" width="31.822" height="50" viewBox="0 0 31.822 50"><defs><style>.a{fill:#e77817;}</style></defs><path class="a" d="M92.465,11.72a1.465,1.465,0,0,0,1.465-1.465,7.325,7.325,0,1,1,14.65,0,1.465,1.465,0,0,0,2.93,0,10.255,10.255,0,1,0-20.511,0A1.465,1.465,0,0,0,92.465,11.72Z" transform="translate(-91)"/><path class="a" d="M97.586,103.985a1.432,1.432,0,0,0,.647.155h20.251a1.437,1.437,0,0,0,1.023-.429,11.466,11.466,0,0,0,3.317-8.108V82.168a4.372,4.372,0,0,0-4.339-4.394,4.268,4.268,0,0,0-1.6.311,4.356,4.356,0,0,0-4.186-3.24,4.269,4.269,0,0,0-1.6.311,4.356,4.356,0,0,0-4.186-3.24,4.271,4.271,0,0,0-1.446.252V64.394a4.34,4.34,0,1,0-8.679,0V80.7H95.339A4.372,4.372,0,0,0,91,85.1v8.1a12.169,12.169,0,0,0,1.779,6.343A11.962,11.962,0,0,0,97.586,103.985ZM93.893,85.1a1.457,1.457,0,0,1,1.446-1.465h1.446v6.3a1.447,1.447,0,1,0,2.893,0V64.394a1.447,1.447,0,1,1,2.893,0V85.1a1.447,1.447,0,1,0,2.893,0V76.308a1.447,1.447,0,1,1,2.893,0V85.1a1.447,1.447,0,1,0,2.893,0V79.238a1.447,1.447,0,1,1,2.893,0V85.1a1.447,1.447,0,1,0,2.893,0v-2.93a1.447,1.447,0,1,1,2.893,0V95.6a8.537,8.537,0,0,1-2.073,5.608H98.587a9.1,9.1,0,0,1-4.694-8.016Z" transform="translate(-91 -54.14)"/></svg>