<svg xmlns:xlink="http://www.w3.org/1999/xlink" xmlns="http://www.w3.org/2000/svg" width="45.988" height="50.5" viewBox="0 0 45.988 50.5"><defs><style>.a{fill:#e77817;stroke:#e67817;stroke-width:0.5px;}</style></defs><g transform="translate(0.25 0.25)"><path class="a" d="M34.077,21.645V12.182a1.1,1.1,0,0,0-.3-.719L23.166.323A1.057,1.057,0,0,0,22.405,0H5.585A5.6,5.6,0,0,0,0,5.638v31.8a5.568,5.568,0,0,0,5.585,5.6H18.862A14.331,14.331,0,1,0,34.077,21.645ZM23.447,3.658l7.117,7.492H25.948a2.517,2.517,0,0,1-2.5-2.511ZM5.585,40.955a3.491,3.491,0,0,1-3.5-3.512V5.638a3.52,3.52,0,0,1,3.5-3.553H21.363V8.639a4.594,4.594,0,0,0,4.585,4.6h6.044v8.139c-.312-.01-.563-.042-.834-.042a14.541,14.541,0,0,0-9.5,3.585H8.42A1.042,1.042,0,1,0,8.42,27h11.3a16.58,16.58,0,0,0-1.834,3.231H8.42a1.042,1.042,0,0,0,0,2.084h8.785a14.3,14.3,0,0,0,.625,8.649H5.585Zm25.563,6.972A12.245,12.245,0,1,1,43.393,35.682,12.257,12.257,0,0,1,31.149,47.926Z" transform="translate(0 0)"/><path class="a" d="M76.67,203.922H88.006a1.119,1.119,0,1,0,0-2.238H76.67a1.119,1.119,0,1,0,0,2.238Z" transform="translate(-68.382 -182.052)"/><path class="a" d="M252.79,283.516a.946.946,0,0,0-1.391,0l-5.584,5.993a.949.949,0,0,0,.048,1.344.973.973,0,0,0,1.362-.047l3.945-4.221v10.4a.953.953,0,0,0,1.906,0v-10.4l3.916,4.221a.951.951,0,0,0,1.391-1.3Z" transform="translate(-220.604 -254.634)"/></g></svg>