<svg xmlns:xlink="http://www.w3.org/1999/xlink" xmlns="http://www.w3.org/2000/svg" width="54.038" height="50.3" viewBox="0 0 54.038 50.3"><defs><style>.a,.c{fill:#e77817;}.a,.b,.c{stroke:#e77817;fill-rule:evenodd;}.a{stroke-width:0.25px;}.b{fill:none;}.b,.c{stroke-width:0.5px;}</style></defs><g transform="translate(-0.568 -1.25)"><path class="a" d="M-732.36,2332.374q0,5.526,0,11.052c0,1.165-.249,1.4-1.462,1.406-1.279,0-2.559,0-3.838.005-.136,0-.319-.064-.392.089s.1.241.186.343c.24.283.485.56.731.837a2.586,2.586,0,0,1-.253,3.863c-1.934,1.615-3.909,3.184-5.869,4.769-3.921,3.17-7.856,6.323-11.759,9.513a3.409,3.409,0,0,1-2.843.8,2.457,2.457,0,0,1-1.5-.857q-7.2-8.322-14.412-16.638-5.8-6.7-11.611-13.395a2.617,2.617,0,0,1,.381-4.006q5.593-4.518,11.2-9.026,3.234-2.607,6.464-5.221a2.781,2.781,0,0,1,4.206.332c.43.49.866.977,1.284,1.477.15.18.273.232.494.1a8.117,8.117,0,0,1,5.856-.7,22.027,22.027,0,0,1,6.472,2.245,32.472,32.472,0,0,0,7.07,2.389c.33.087.661.17.99.26.236.065.344-.024.345-.251,0-.278,0-.556,0-.834.012-.685.3-.987,1.014-1.014.7-.027,1.405-.011,2.108-.01q1.892,0,3.784.006c1.039,0,1.359.3,1.36,1.31q.006,5.577,0,11.155Zm-52-.013a1,1,0,0,0,.333.769q3.8,4.378,7.592,8.76,5.791,6.68,11.585,13.355,3.365,3.879,6.735,7.752a.989.989,0,0,0,1.587.13q5.259-4.217,10.514-8.437c.289-.231.361-.368.082-.69q-9.758-11.227-19.488-22.476a.971.971,0,0,0-.686-.343,6.1,6.1,0,0,1-4.251-2.121,3,3,0,0,1-.551-3.534c.124-.232-.011-.352-.137-.5-.536-.632-1.093-1.25-1.6-1.9-.256-.332-.432-.3-.727-.062q-5.283,4.269-10.581,8.522A.891.891,0,0,0-784.356,2332.36Zm43.732-1.31h0c0-2.173-.014-4.345.011-6.517.005-.471-.155-.657-.624-.78a67.654,67.654,0,0,1-7.053-2.151c-.925-.353-1.766-.861-2.651-1.283a17.528,17.528,0,0,0-5.729-1.613,5.706,5.706,0,0,0-4.516,1.242c-2.536,2.109-5.2,4.078-7.807,6.106a.886.886,0,0,0-.256,1.361,4.1,4.1,0,0,0,2.4,1.751,6.881,6.881,0,0,0,4.579-.44,14.227,14.227,0,0,0,4.175-2.651,2.145,2.145,0,0,1,3.283-.024c.123.1.239.211.351.323,1.415,1.414,2.7,2.934,4.017,4.434q3.345,3.824,6.682,7.656c.238.275.408.357.747.13a2.875,2.875,0,0,1,1.861-.417c.486.041.534-.124.531-.507C-740.631,2335.464-740.624,2333.258-740.624,2331.051Zm1.795,1.308c0,3.352.007,6.7-.009,10.056,0,.459.114.657.631.643,1.134-.031,2.269-.023,3.4,0,.44.008.6-.136.6-.57q-.014-10.108,0-20.215c0-.469-.181-.594-.639-.584-1.1.023-2.2.03-3.3-.007-.544-.018-.711.147-.707.677C-738.82,2325.69-738.831,2329.024-738.83,2332.359Zm.578,15.494a1.686,1.686,0,0,0-.495-.982q-2.763-3.14-5.51-6.291-5.788-6.611-11.579-13.22c-.372-.425-.681-.45-1.067-.036a8.581,8.581,0,0,1-1.561,1.278c-.357.237-.331.432-.065.7.247.252.467.529.7.8l11.514,13.272q2.74,3.158,5.472,6.322c.254.3.446.329.747.07.458-.392.946-.751,1.42-1.124A1.018,1.018,0,0,0-738.252,2347.852Zm-22.371-17.893c-.075.031-.175.069-.273.113a13.283,13.283,0,0,1-1.914.709c-.636.172-.637.188-.22.668q5.188,5.971,10.371,11.946,4.092,4.716,8.176,9.437c.232.269.392.28.653.054.455-.395.937-.76,1.405-1.142.575-.468.569-.466.074-1.036q-5.816-6.686-11.629-13.377-3.072-3.534-6.146-7.067C-760.249,2330.122-760.355,2329.942-760.622,2329.959Zm-4.813-13.144a.686.686,0,0,0-.447.158c-.585.485-1.163.979-1.746,1.466-.183.152-.134.286,0,.441q.893,1.006,1.775,2.021c.167.191.321.242.541.061q1.025-.84,2.07-1.66c.173-.137.213-.26.057-.431-.532-.586-1.054-1.179-1.59-1.762A.83.83,0,0,0-765.435,2316.815Zm-1.664,5.376a.943.943,0,0,0-.08-.121q-.94-1.072-1.882-2.141a.31.31,0,0,0-.5-.021c-.557.491-1.113.983-1.679,1.465-.227.194-.217.351-.021.566q.836.918,1.64,1.862c.183.215.346.271.582.078.589-.483,1.187-.955,1.78-1.433C-767.184,2322.383-767.072,2322.335-767.1,2322.191Zm26.475,19.986v-1.862c0-.167-.031-.322-.237-.351a2.376,2.376,0,0,0-1.068.043c-.259.084-.4.224-.16.494C-741.629,2341.009-741.186,2341.531-740.624,2342.177Z" transform="translate(786.837 -2313.674)"/><path class="b" d="M-553.235,2360.463c0-3.679.011-7.358-.013-11.038,0-.584.173-.767.753-.747,1.168.04,2.338.033,3.506.007.487-.011.681.126.68.645q-.019,11.154,0,22.306c0,.479-.171.638-.64.629-1.207-.022-2.415-.031-3.621,0-.551.015-.674-.2-.672-.709C-553.227,2367.86-553.235,2364.161-553.235,2360.463Z" transform="translate(600.827 -2341.269)"/><path class="b" d="M-670.89,2390.959c.285-.019.4.179.529.336q3.272,3.9,6.54,7.8,6.187,7.381,12.374,14.761c.527.628.533.626-.079,1.143-.5.421-1.011.825-1.5,1.26-.277.249-.448.237-.694-.06q-4.338-5.217-8.7-10.414-5.517-6.592-11.036-13.182c-.443-.529-.442-.546.234-.736a13.876,13.876,0,0,0,2.037-.783C-671.077,2391.035-670.97,2390.993-670.89,2390.959Z" transform="translate(696.352 -2375.964)"/><path class="b" d="M-693.106,2323.85a.869.869,0,0,1,.706.324c.57.642,1.126,1.3,1.692,1.944.166.19.124.325-.06.476q-1.109.907-2.2,1.832c-.234.2-.4.144-.576-.067q-.938-1.12-1.889-2.23c-.146-.17-.2-.318,0-.487.621-.538,1.235-1.083,1.858-1.617A.712.712,0,0,1-693.106,2323.85Z" transform="translate(714.53 -2320.531)"/><path class="c" d="M-656.013,2490.892a1.2,1.2,0,0,1-.462.832c-1.926,1.612-3.848,3.23-5.785,4.829-.531.439-1.025.339-1.539-.271q-2.022-2.4-4.029-4.8c-.246-.294-.493-.588-.734-.886-.515-.637-.486-1.063.172-1.623,1.254-1.071,2.528-2.119,3.793-3.177.589-.491,1.173-.989,1.766-1.475.654-.536,1.1-.539,1.638.09,1.666,1.956,3.305,3.934,4.953,5.905A.94.94,0,0,1-656.013,2490.892Zm-2.428-.177a2.332,2.332,0,0,0-.142-.211q-1.647-1.993-3.294-3.985c-.169-.206-.309-.23-.522-.052q-1.987,1.655-3.99,3.288c-.224.182-.2.312-.027.513q1.62,1.94,3.218,3.9c.221.271.389.293.654.071,1.291-1.083,2.592-2.155,3.889-3.231C-658.569,2490.936-658.459,2490.882-658.441,2490.715Z" transform="translate(692.987 -2451.185)"/><path class="c" d="M-758.436,2399.52a1.027,1.027,0,0,1,.789.413c.991,1.217,1.986,2.433,2.961,3.663a.88.88,0,0,1-.052,1.288.871.871,0,0,1-1.287-.087c-1.091-1.257-2.144-2.549-3.2-3.838a.8.8,0,0,1-.01-.968A.85.85,0,0,1-758.436,2399.52Z" transform="translate(765.868 -2381.778)"/><path class="c" d="M-693.625,2476.451a1,1,0,0,1-.51.821.845.845,0,0,1-1.052-.19c-.4-.414-.762-.859-1.131-1.3q-.977-1.167-1.94-2.346a.963.963,0,0,1,.065-1.465.956.956,0,0,1,1.4.264c.826,1.007,1.638,2.024,2.457,3.036.156.193.32.382.477.574A.982.982,0,0,1-693.625,2476.451Z" transform="translate(716.92 -2439.964)"/><path class="c" d="M-724.69,2441.4a1.037,1.037,0,0,1-.784-.424c-1-1.19-2-2.379-2.975-3.584a.946.946,0,0,1,.126-1.38.88.88,0,0,1,1.284.152c1.058,1.263,2.086,2.553,3.111,3.844a.815.815,0,0,1,0,.973A.824.824,0,0,1-724.69,2441.4Z" transform="translate(740.953 -2411)"/></g></svg>