<svg xmlns="http://www.w3.org/2000/svg" xmlns:xlink="http://www.w3.org/1999/xlink" width="569" height="413" viewBox="0 0 569 413">
    <defs>
        <path id="n9286xsyia" d="M0.184 0.22L200.768 0.22 200.768 262.971 0.184 262.971z"/>
        <path id="8aadj95w5c" d="M0.845 0.004L85.993 0.004 85.993 42.867 0.845 42.867z"/>
        <path id="tkuixwf4ne" d="M0.091 0.606L39.769 0.606 39.769 53.679 0.091 53.679z"/>
        <path id="izploai7hg" d="M0.258 0.606L39.936 0.606 39.936 53.679 0.258 53.679z"/>
    </defs>
    <g fill="none" fill-rule="evenodd">
        <g>
            <g>
                <path fill="#FFF" d="M0 0H569V413H0z" transform="translate(-721 -2901) translate(721 2901)"/>
                <g>
                    <g transform="translate(-721 -2901) translate(721 2901) translate(112 121) translate(251.605 23.857)">
                        <mask id="15115a4zlb" fill="#fff">
                            <use xlink:href="#n9286xsyia"/>
                        </mask>
                        <path fill="#B2E0E0" d="M187.387.22H13.19C6.007.22.184 5.94.184 12.996v237.2c0 7.055 5.823 12.775 13.005 12.775h179.419c4.506 0 8.16-3.589 8.16-8.016l-.375-241.977C200.38 5.928 194.563.22 187.387.22" mask="url(#15115a4zlb)"/>
                    </g>
                    <path fill="#D0EDED" d="M430.981 34.057H272.84c-6.52 0-11.805 5.286-11.805 11.806v219.18c0 6.52 5.285 11.806 11.805 11.806H435.72c4.092 0 7.408-3.317 7.408-7.407l-.342-223.598c-.009-6.512-5.292-11.787-11.805-11.787" transform="translate(-721 -2901) translate(721 2901) translate(112 121)"/>
                    <g transform="translate(-721 -2901) translate(721 2901) translate(112 121) translate(308.68)">
                        <mask id="ygkqxwpltd" fill="#fff">
                            <use xlink:href="#8aadj95w5c"/>
                        </mask>
                        <path fill="#81CDCD" d="M62.828 19.414c0-10.718-8.69-19.41-19.41-19.41S24.01 8.696 24.01 19.414v.171H2.527c-.93 0-1.682.753-1.682 1.682v19.918c0 .93.753 1.682 1.682 1.682H84.31c.93 0 1.682-.753 1.682-1.682V21.267c0-.929-.753-1.682-1.682-1.682H62.828v-.171z" mask="url(#ygkqxwpltd)"/>
                    </g>
                    <path fill="#FFF" d="M382.126 127.395v8.295c0 1.68-1.505 3.054-3.343 3.054h-5.584c-1.839 0-3.343-1.375-3.343-3.054v-8.295M336.892 127.395v8.295c0 1.68-1.505 3.054-3.342 3.054h-5.585c-1.837 0-3.342-1.375-3.342-3.054v-8.295M382.602 107.81l-5.09-17.566.032.128s-1.335-4.454-4.788-5.09c-20.118-3.34-38.764 0-38.764 0-3.453.636-4.788 5.09-4.788 5.09l-5.089 17.566" transform="translate(-721 -2901) translate(721 2901) translate(112 121)"/>
                    <path fill="#FFF" d="M380.902 107.703c3.672 0 6.678 3.006 6.678 6.678v9.78c0 3.673-3.006 6.679-6.678 6.679h-55.054c-3.674 0-6.679-3.006-6.679-6.679v-9.78c0-3.672 3.005-6.678 6.679-6.678" transform="translate(-721 -2901) translate(721 2901) translate(112 121)"/>
                    <path fill="#D0EDED" d="M335.29 118.712c0 2.504-2.03 4.532-4.532 4.532-2.503 0-4.533-2.028-4.533-4.532 0-2.503 2.03-4.532 4.533-4.532 2.502 0 4.532 2.029 4.532 4.532M380.523 118.712c0 2.504-2.03 4.532-4.533 4.532-2.502 0-4.531-2.028-4.531-4.532 0-2.503 2.03-4.532 4.531-4.532 2.504 0 4.533 2.029 4.533 4.532M368.338 105.144h-34.216c-.96 0-1.266-.786-1.266-1.747l2.604-9.358c.42-1.63 2.072-2.307 2.524-2.307 0 0 13.81-2.487 30.78 0 .448.065 2.105.677 2.525 2.307l2.603 9.358c0 .961-.304 1.747-1.265 1.747H338.41" transform="translate(-721 -2901) translate(721 2901) translate(112 121)"/>
                    <path fill="#FFF" d="M392.051 172.392h-79.906c-.396 0-.717-.32-.717-.716v-6.534c0-.397.32-.717.717-.717h79.906c.397 0 .718.32.718.717v6.534c0 .395-.32.716-.718.716M392.051 189.988h-79.906c-.396 0-.717-.321-.717-.716v-6.534c0-.397.32-.717.717-.717h79.906c.397 0 .718.32.718.717v6.534c0 .395-.32.716-.718.716M392.051 207.584h-79.906c-.396 0-.717-.32-.717-.716v-6.534c0-.397.32-.717.717-.717h79.906c.397 0 .718.32.718.717v6.534c0 .395-.32.716-.718.716M358.063 16.407c0 3.294-2.67 5.964-5.964 5.964-3.294 0-5.965-2.67-5.965-5.964 0-3.294 2.67-5.964 5.965-5.964 3.293 0 5.964 2.67 5.964 5.964" transform="translate(-721 -2901) translate(721 2901) translate(112 121)"/>
                    <path fill="#62C0C1" d="M45.733 266.77s25.596 4.378 100.072 4.378c74.475 0 100.07-4.378 100.07-4.378l-37.509-37.862H84.511L45.733 266.77zM21.81 143.439s-1.633-3.409-2.581-7.567c0 0-10.657.51-16.092-1.824 0 0-3.215-1.835-3.134-4.89.077-3.054-.054-7.82 2.429-9.266 2.484-1.447 1.974-2.33 10.653-4.745 0 0 6.767-1.895 12.567-1.357 0 0 1.974.255 2.165 2.817.193 2.561.391 15.349.391 15.349l1.258 8.33-7.656 3.153zM269.638 143.439s1.633-3.409 2.582-7.567c0 0 10.656.51 16.093-1.824 0 0 3.213-1.835 3.134-4.89-.079-3.054.052-7.82-2.43-9.266-2.483-1.447-1.975-2.33-10.654-4.745 0 0-6.767-1.895-12.566-1.357 0 0-1.975.255-2.166 2.817-.191 2.561-.39 15.349-.39 15.349l-1.26 8.33 7.657 3.153z" transform="translate(-721 -2901) translate(721 2901) translate(112 121)"/>
                    <g transform="translate(-721 -2901) translate(721 2901) translate(112 121) translate(5.964 237.115)">
                        <mask id="1jedm4g8bf" fill="#fff">
                            <use xlink:href="#tkuixwf4ne"/>
                        </mask>
                        <path fill="#62C0C1" d="M32.796 53.68H7.064c-3.851 0-6.973-3.123-6.973-6.974V7.58C.09 3.728 3.213.606 7.064.606h25.732c3.852 0 6.973 3.122 6.973 6.974v39.126c0 3.851-3.121 6.974-6.973 6.974" mask="url(#1jedm4g8bf)"/>
                    </g>
                    <g transform="translate(-721 -2901) translate(721 2901) translate(112 121) translate(245.617 237.115)">
                        <mask id="xs3hauiv5h" fill="#fff">
                            <use xlink:href="#izploai7hg"/>
                        </mask>
                        <path fill="#62C0C1" d="M32.963 53.68H7.233c-3.852 0-6.975-3.123-6.975-6.974V7.58C.258 3.728 3.381.606 7.232.606h25.73c3.852 0 6.974 3.122 6.974 6.974v39.126c0 3.851-3.122 6.974-6.973 6.974" mask="url(#xs3hauiv5h)"/>
                    </g>
                    <path fill="#81CDCD" d="M145.805 255.922c-44.465 0-71.503-1.56-86.075-2.819L45.733 266.77s25.596 4.378 100.072 4.378c74.475 0 100.07-4.378 100.07-4.378L232.3 253.068c-14.47 1.264-41.597 2.854-86.496 2.854" transform="translate(-721 -2901) translate(721 2901) translate(112 121)"/>
                    <path fill="#FFF" d="M145.805 233.736h51.434c4.524 0 8.864 1.786 12.078 4.971l23.708 23.504c3.39 3.36 8.101 5.031 12.85 4.558l31.497-3.132c1.248-.126 2.326-.909 2.84-2.052 1.557-3.468 4.7-11.386 5.43-20.184.98-11.815 5.835-47.094-2.716-69.143-8.552-22.049-42.984-98.404-60.418-107.895 0 0-9.516-6.173-76.703-6.173-67.188 0-76.706 6.173-76.706 6.173-17.432 9.49-51.866 85.846-60.416 107.895-8.551 22.049-3.698 57.328-2.717 69.143.73 8.798 3.873 16.716 5.431 20.184.514 1.143 1.592 1.926 2.84 2.052l31.497 3.132c4.749.473 9.46-1.199 12.85-4.558l23.707-23.504c3.213-3.185 7.554-4.971 12.078-4.971h51.436z" transform="translate(-721 -2901) translate(721 2901) translate(112 121)"/>
                    <path stroke="#684186" stroke-width="1.357" d="M145.805 233.736h51.434c4.524 0 8.864 1.786 12.078 4.971l23.708 23.504c3.39 3.36 8.101 5.031 12.85 4.558l31.497-3.132c1.248-.126 2.326-.909 2.84-2.052 1.557-3.468 4.7-11.386 5.43-20.184.98-11.815 5.835-47.094-2.716-69.143-8.552-22.049-42.984-98.404-60.418-107.895 0 0-9.516-6.173-76.703-6.173-67.188 0-76.706 6.173-76.706 6.173-17.432 9.49-51.866 85.846-60.416 107.895-8.551 22.049-3.698 57.328-2.717 69.143.73 8.798 3.873 16.716 5.431 20.184.514 1.143 1.592 1.926 2.84 2.052l31.497 3.132c4.749.473 9.46-1.199 12.85-4.558l23.707-23.504c3.213-3.185 7.554-4.971 12.078-4.971h51.436z" transform="translate(-721 -2901) translate(721 2901) translate(112 121)"/>
                    <path fill="#BD479A" d="M23.65 246.33c.442 2.081 1.332 1.909 4.161 2.812 4.51 1.44 14.063 1.812 17.902 1.572 2.355-.146 4.956-.93 5.52-1.44 3.418-3.093 11.246-12.98 11.246-12.98s1.574-2.446 1.701-3.305c.269-1.832-.798-2.533-1.343-2.746-1.11-.433-30.515-8.185-44.65-11.403-.338-.076-1.201.108-1.319.433-.212.584.953 1.606 1.32 2.107.28.383.6.991.899 1.635.001.005.004.008.006.012.335.726.556 1.493.689 2.28.58 3.443 2.405 14.124 3.869 21.023M268.151 246.33c-.441 2.081-1.332 1.909-4.16 2.812-4.51 1.44-14.063 1.812-17.902 1.572-2.355-.146-4.957-.93-5.52-1.44-3.418-3.093-11.246-12.98-11.246-12.98s-1.575-2.446-1.701-3.305c-.269-1.832.797-2.533 1.345-2.746 1.108-.433 30.513-8.185 44.647-11.403.339-.076 1.202.108 1.32.433.212.584-.953 1.606-1.32 2.107-.28.383-.6.991-.899 1.635l-.006.012c-.335.726-.556 1.493-.689 2.28-.58 3.443-2.405 14.124-3.869 21.023" transform="translate(-721 -2901) translate(721 2901) translate(112 121)"/>
                    <path fill="#E1F2F3" d="M145.805 215.425h11.722c5.379-.163 11.082-.342 14.105-.45 3.015-.105 12.113-.739 12.113-.739 3.196-.226 6.369-1.88 8.97-3.748 0 0 7.315-5.347 10.22-6.876 2.199-1.154 8.276-3.046 14.904-4.986l21.13-6.182c.002.002 28.371-8.492 32.599-12.01 1.904-1.586 2.752-2.592 3.016-5.14.274-2.649-1.269-8.18-1.269-8.18-.586-1.98-1.645-5.567-2.723-7.768-.61-1.25-.952-1.485-1.257-1.307v-.002.002c-.176.101-.763.683-1.452 1.163-4.916 3.417-27.75 11.144-62.104 13.93-20.775 1.683-45.71 2.337-59.976 2.372-14.267-.035-39.2-.69-59.976-2.373-34.353-2.785-57.188-10.512-62.104-13.93-.689-.48-1.276-1.061-1.452-1.162v-.002.002c-.304-.178-.647.058-1.257 1.307-1.078 2.201-2.137 5.789-2.723 7.769 0 0-1.543 5.53-1.269 8.179.264 2.548 1.112 3.554 3.017 5.14 4.227 3.518 32.596 12.012 32.598 12.01l21.13 6.182c6.628 1.94 12.706 3.832 14.905 4.986 2.905 1.529 10.218 6.876 10.218 6.876 2.602 1.868 5.775 3.522 8.97 3.748 0 0 9.1.634 12.114.74 3.023.107 8.726.286 14.105.449h11.726z" transform="translate(-721 -2901) translate(721 2901) translate(112 121)"/>
                    <path fill="#A1D9DA" d="M83.718 172.95c-33.175-2.926-55.179-10.403-59.994-13.749-.69-.48-1.276-1.061-1.452-1.163l-.002-.001v.001c-.304-.176-.647.058-1.257 1.308-1.076 2.202-2.136 5.79-2.722 7.768 0 0-1.544 5.53-1.27 8.18.265 2.547 1.115 3.554 3.017 5.14 4.228 3.518 32.597 12.011 32.599 12.01l2.01.589c1.503-1.35 3.489-3.075 4.562-3.758.647-.41 2.213-.895 3.214-1.074 5.174-.926 11.262-1.324 18.309-1.787 2.946-.193 5.99-.391 9.292-.648.122-.01.544-.138.647-.319.012-.023.033-.06-.007-.155-1.35-3.17-4.217-8.629-6.946-12.343M207.937 172.95c33.175-2.926 55.18-10.403 59.994-13.749.69-.48 1.277-1.061 1.453-1.163v-.001.001c.305-.176.648.058 1.259 1.308 1.076 2.202 2.135 5.79 2.721 7.768 0 0 1.545 5.53 1.269 8.18-.262 2.547-1.112 3.554-3.016 5.14-4.226 3.518-32.596 12.011-32.597 12.01l-2.012.589c-1.503-1.35-3.489-3.075-4.562-3.758-.646-.41-2.213-.895-3.214-1.074-5.174-.926-11.262-1.324-18.309-1.787-2.945-.193-5.99-.391-9.292-.648-.122-.01-.544-.138-.647-.319-.012-.023-.033-.06.007-.155 1.35-3.17 4.217-8.629 6.946-12.343" transform="translate(-721 -2901) translate(721 2901) translate(112 121)"/>
                    <path fill="#E1F2F3" d="M221.325 73.324c-4.2-1.837-19.751-2.105-33.57-2.812-13.377-.683-29.507-1.497-41.953-1.497-12.686 0-28.576.814-41.951 1.497-13.82.707-29.37.975-33.57 2.812-4.201 1.837-29.293 41.558-23.638 49.643 5.004 7.153 17.394 5.31 99.16 5.308 81.765.002 94.154 1.845 99.158-5.308 5.656-8.085-19.436-47.806-23.636-49.643" transform="translate(-721 -2901) translate(721 2901) translate(112 121)"/>
                </g>
            </g>
        </g>
    </g>
</svg>